<svg width="46" height="46" viewBox="0 0 46 46" fill="none" xmlns="http://www.w3.org/2000/svg">
<g filter="url(#filter0_b_905_1135)">
<path d="M0 23C0 10.2975 10.2975 0 23 0C35.7025 0 46 10.2975 46 23C46 35.7025 35.7025 46 23 46C10.2975 46 0 35.7025 0 23Z" fill="#F7F7FE"/>
<mask id="mask0_905_1135" style="mask-type:alpha" maskUnits="userSpaceOnUse" x="13" y="13" width="20" height="20">
<rect x="13.4" y="13.4" width="19.1999" height="19.1999" fill="#D9D9D9"/>
</mask>
<g mask="url(#mask0_905_1135)">
<path d="M19 30.1999C17.8933 30.1999 16.95 29.8099 16.17 29.0299C15.39 28.2499 15 27.3066 15 26.2C15 25.2266 15.3033 24.3766 15.91 23.65C16.5167 22.9233 17.28 22.4666 18.2 22.28V23.94C17.7333 24.1 17.35 24.3866 17.05 24.8C16.75 25.2133 16.6 25.68 16.6 26.2C16.6 26.8666 16.8333 27.4333 17.3 27.8999C17.7667 28.3666 18.3333 28.5999 19 28.5999C19.6666 28.5999 20.2333 28.3666 20.7 27.8999C21.1666 27.4333 21.4 26.8666 21.4 26.2V25.4H26.1C26.2066 25.28 26.3366 25.1833 26.49 25.11C26.6433 25.0366 26.8133 25 26.9999 25C27.3333 25 27.6166 25.1166 27.8499 25.35C28.0833 25.5833 28.1999 25.8666 28.1999 26.2C28.1999 26.5333 28.0833 26.8166 27.8499 27.0499C27.6166 27.2833 27.3333 27.3999 26.9999 27.3999C26.8133 27.3999 26.6433 27.3633 26.49 27.2899C26.3366 27.2166 26.2066 27.1199 26.1 26.9999H22.92C22.7333 27.9199 22.2766 28.6833 21.55 29.2899C20.8233 29.8966 19.9733 30.1999 19 30.1999ZM26.9999 30.1999C26.2533 30.1999 25.5766 30.0166 24.97 29.6499C24.3633 29.2833 23.8866 28.7999 23.54 28.1999H25.68C25.8666 28.3333 26.0733 28.4333 26.3 28.4999C26.5266 28.5666 26.7599 28.5999 26.9999 28.5999C27.6666 28.5999 28.2333 28.3666 28.6999 27.8999C29.1666 27.4333 29.3999 26.8666 29.3999 26.2C29.3999 25.5333 29.1666 24.9666 28.6999 24.5C28.2333 24.0333 27.6666 23.8 26.9999 23.8C26.7333 23.8 26.4866 23.8366 26.26 23.91C26.0333 23.9833 25.82 24.0933 25.62 24.24L23.18 20.18C22.9 20.1266 22.6666 19.9933 22.48 19.78C22.2933 19.5666 22.2 19.3066 22.2 19C22.2 18.6667 22.3166 18.3833 22.55 18.15C22.7833 17.9167 23.0666 17.8 23.4 17.8C23.7333 17.8 24.0166 17.9167 24.25 18.15C24.4833 18.3833 24.6 18.6667 24.6 19V19.17C24.6 19.2166 24.5866 19.2733 24.56 19.34L26.3 22.26C26.4066 22.2333 26.52 22.2166 26.6399 22.21C26.7599 22.2033 26.8799 22.2 26.9999 22.2C28.1066 22.2 29.0499 22.59 29.8299 23.37C30.6099 24.15 30.9999 25.0933 30.9999 26.2C30.9999 27.3066 30.6099 28.2499 29.8299 29.0299C29.0499 29.8099 28.1066 30.1999 26.9999 30.1999ZM19 27.3999C18.6667 27.3999 18.3833 27.2833 18.15 27.0499C17.9167 26.8166 17.8 26.5333 17.8 26.2C17.8 25.9066 17.8933 25.6533 18.08 25.44C18.2667 25.2266 18.4933 25.0866 18.76 25.02L20.64 21.9C20.2533 21.54 19.95 21.11 19.73 20.61C19.51 20.11 19.4 19.5733 19.4 19C19.4 17.8933 19.79 16.95 20.57 16.17C21.35 15.39 22.2933 15 23.4 15C24.5066 15 25.45 15.39 26.23 16.17C27.0099 16.95 27.3999 17.8933 27.3999 19H25.8C25.8 18.3333 25.5666 17.7667 25.1 17.3C24.6333 16.8333 24.0666 16.6 23.4 16.6C22.7333 16.6 22.1666 16.8333 21.7 17.3C21.2333 17.7667 21 18.3333 21 19C21 19.5733 21.1733 20.0766 21.52 20.51C21.8666 20.9433 22.3066 21.22 22.84 21.34L20.14 25.84C20.1666 25.9066 20.1833 25.9666 20.19 26.02C20.1966 26.0733 20.2 26.1333 20.2 26.2C20.2 26.5333 20.0833 26.8166 19.85 27.0499C19.6166 27.2833 19.3333 27.3999 19 27.3999Z" fill="#2E67F8"/>
</g>
</g>
<defs>
<filter id="filter0_b_905_1135" x="-3.06667" y="-3.06667" width="52.1333" height="52.1333" filterUnits="userSpaceOnUse" color-interpolation-filters="sRGB">
<feFlood flood-opacity="0" result="BackgroundImageFix"/>
<feGaussianBlur in="BackgroundImageFix" stdDeviation="1.53333"/>
<feComposite in2="SourceAlpha" operator="in" result="effect1_backgroundBlur_905_1135"/>
<feBlend mode="normal" in="SourceGraphic" in2="effect1_backgroundBlur_905_1135" result="shape"/>
</filter>
</defs>
</svg>
