<svg width="142" height="42" viewBox="0 0 142 42" fill="none" xmlns="http://www.w3.org/2000/svg">
<path d="M27.1707 -0.000131326C12.1641 -0.000131326 0 4.65203 0 10.389C0 12.2823 1.32948 14.0552 3.64282 15.5825C8.33984 12.477 17.113 10.389 27.1677 10.389V-0.000131326H27.1707Z" fill="white"/>
<path d="M50.6953 25.9722C53.0086 24.4449 54.3381 22.6719 54.3381 20.7786C54.3381 15.0417 42.175 10.3895 27.1674 10.3895V20.7786C37.2221 20.7786 45.9952 22.8697 50.6922 25.9722H50.6953Z" fill="white"/>
<path d="M3.64282 15.5824C1.32948 17.1127 0 18.8826 0 20.7759C0 26.5129 12.1641 31.165 27.1707 31.165V20.7759C17.116 20.7759 8.3429 18.6848 3.64587 15.5824H3.64282Z" fill="white"/>
<path d="M54.3411 31.1651C54.3411 29.2718 53.0116 27.4988 50.6983 25.9715C46.0013 29.0771 37.2281 31.1651 27.1744 31.1651V41.5542C42.178 41.5542 54.3442 36.9031 54.3442 31.1651H54.3411Z" fill="white"/>
<path d="M80.0984 20.259C83.0418 20.259 83.9451 19.7441 83.9451 17.653C83.9451 15.562 83.0693 15.0185 80.0749 15.0185H71.1172V20.2559H80.0984V20.259ZM65.9033 10.7365H80.6132C87.1699 10.7365 89.1315 12.4921 89.1315 16.9832C89.1315 20.001 88.2557 21.6527 85.7762 22.4296V22.5326C88.5371 22.972 89.155 23.8233 89.155 27.3326V30.8184H83.942V28.1084C83.942 25.5025 83.5026 24.5207 79.7099 24.5207H71.1172V30.8184H65.9033V10.7365Z" fill="white"/>
<path d="M93.6871 29.7899C92.2914 28.8835 91.903 27.4847 91.903 25.0236V24.4791H97.1719V24.5546C97.1719 25.7709 97.3544 26.2368 98.0487 26.6018C98.7461 26.9638 100.372 27.1187 103.964 27.1187C108.095 27.1187 109.312 26.9362 109.958 26.6263C110.655 26.2888 110.835 25.9024 110.835 24.944C110.835 24.0621 110.601 23.5728 109.982 23.2628C109.364 22.9519 108.071 22.9009 101.561 22.7459C97.4819 22.6419 95.3368 22.28 94.045 21.4776C92.6248 20.5988 92.0824 19.1469 92.0824 16.5318C92.0824 13.9157 92.8552 12.5169 94.2785 11.6615C95.8282 10.7276 98.5126 10.3147 103.731 10.3147C108.432 10.3147 111.739 10.6521 113.467 11.7655C114.914 12.6994 115.199 14.2501 115.199 16.4278V16.7898H109.93V16.7663C109.93 15.8324 109.827 15.2635 109.13 14.926C108.381 14.5641 106.962 14.4326 103.655 14.4326C100.011 14.4326 98.7736 14.5641 98.1283 14.874C97.4299 15.2115 97.2749 15.7284 97.2749 16.4523C97.2749 17.3862 97.6124 17.7726 98.0763 18.0071C98.5922 18.265 99.4445 18.368 104.404 18.472C110.033 18.575 112.567 18.8615 114.09 19.7923C115.537 20.6712 116.001 22.3045 116.001 24.7646C116.001 27.4083 115.331 28.8835 113.908 29.7899C112.487 30.6963 110.033 31.2407 103.809 31.2407C97.5849 31.2407 95.3123 30.8513 93.6841 29.7899H93.6871Z" fill="white"/>
<path d="M132.765 21.0604C135.921 21.0604 136.913 20.466 136.913 18.0415C136.913 15.6171 135.921 15.0227 132.765 15.0227H124.522V21.0604H132.765ZM119.383 10.7365H132.995C139.966 10.7365 142 12.4912 142 18.0415C142 23.5919 139.966 25.3465 132.995 25.3465H124.525V30.8174H119.387V10.7365H119.383Z" fill="white"/>
</svg>
