<svg width="46" height="46" viewBox="0 0 46 46" fill="none" xmlns="http://www.w3.org/2000/svg">
<g filter="url(#filter0_b_8170_10787)">
<path d="M0 23C0 10.2975 10.2975 0 23 0V0C35.7025 0 46 10.2975 46 23V23C46 35.7025 35.7025 46 23 46V46C10.2975 46 0 35.7025 0 23V23Z" fill="#F7F7FE"/>
<mask id="mask0_8170_10787" style="mask-type:alpha" maskUnits="userSpaceOnUse" x="13" y="13" width="20" height="20">
<rect x="13.3984" y="13.3984" width="19.1999" height="19.1999" fill="#D9D9D9"/>
</mask>
<g mask="url(#mask0_8170_10787)">
<path d="M21.3997 27.7996V26.1997H26.1996V27.7996H21.3997ZM18.2397 27.7996L13.6797 23.2437L14.8197 22.0997L18.2397 25.5197L25.577 18.1797L26.7196 19.3197L18.2397 27.7996ZM24.5996 24.5997V22.9997H29.3996V24.5997H24.5996ZM27.7996 21.3997V19.7997H32.5996V21.3997H27.7996Z" fill="#2E67F8"/>
</g>
</g>
<defs>
<filter id="filter0_b_8170_10787" x="-3.06667" y="-3.06667" width="52.1333" height="52.1333" filterUnits="userSpaceOnUse" color-interpolation-filters="sRGB">
<feFlood flood-opacity="0" result="BackgroundImageFix"/>
<feGaussianBlur in="BackgroundImageFix" stdDeviation="1.53333"/>
<feComposite in2="SourceAlpha" operator="in" result="effect1_backgroundBlur_8170_10787"/>
<feBlend mode="normal" in="SourceGraphic" in2="effect1_backgroundBlur_8170_10787" result="shape"/>
</filter>
</defs>
</svg>
